<svg width="45" height="45" viewBox="0 0 45 45" fill="none" xmlns="http://www.w3.org/2000/svg">
<path d="M39.6875 20.375V19.3125C39.6875 9.92319 32.0768 2.3125 22.6875 2.3125C13.2982 2.3125 5.68753 9.92319 5.68753 19.3125V20.375" stroke="#222831" stroke-width="4" stroke-linecap="round" stroke-linejoin="round"/>
<path d="M5.6875 33.125C5.6875 33.125 3.5625 38.4375 7.8125 40.5625C12.0625 42.6875 33.3125 42.6875 37.5625 40.5625C41.8125 38.4375 39.6875 33.125 39.6875 33.125" stroke="#222831" stroke-width="4" stroke-linecap="round" stroke-linejoin="round"/>
<path d="M35.4375 19.3125H9.93753C5.82991 19.3125 2.50003 22.6424 2.50003 26.75C2.50003 30.8576 5.82991 34.1875 9.93753 34.1875H35.4375C39.5451 34.1875 42.875 30.8576 42.875 26.75C42.875 22.6424 39.5451 19.3125 35.4375 19.3125Z" stroke="#222831" stroke-width="4" stroke-linecap="round" stroke-linejoin="round"/>
<path d="M8.87503 27.8125L10.5665 26.9667C11.3712 26.5645 12.2519 26.3372 13.1507 26.2998C14.0495 26.2625 14.946 26.4159 15.7813 26.75L16.2318 26.9306C16.9255 27.208 17.6701 27.3353 18.4165 27.3042C19.163 27.2731 19.8943 27.0842 20.5625 26.75V26.75C21.2307 26.4158 21.9621 26.2269 22.7086 26.1958C23.455 26.1646 24.1996 26.292 24.8933 26.5694L25.9133 26.9774C26.5696 27.2401 27.2742 27.3608 27.9805 27.3315C28.6869 27.3022 29.379 27.1236 30.0113 26.8074V26.8074C30.7064 26.4599 31.4729 26.2789 32.25 26.2789C33.0272 26.2789 33.7936 26.4599 34.4887 26.8074L36.5 27.8125" stroke="#222831" stroke-width="4" stroke-linecap="round" stroke-linejoin="round"/>
<path d="M15.2501 15.6468C16.7171 15.6468 17.9063 14.4576 17.9063 12.9906C17.9063 11.5236 16.7171 10.3344 15.2501 10.3344C13.7831 10.3344 12.5938 11.5236 12.5938 12.9906C12.5938 14.4576 13.7831 15.6468 15.2501 15.6468Z" fill="#222831"/>
<path d="M22.4219 12.725C23.8889 12.725 25.0782 11.5357 25.0782 10.0687C25.0782 8.60172 23.8889 7.41248 22.4219 7.41248C20.9549 7.41248 19.7657 8.60172 19.7657 10.0687C19.7657 11.5357 20.9549 12.725 22.4219 12.725Z" fill="#222831"/>
</svg>
