<svg width="47" height="47" viewBox="0 0 47 47" fill="none" xmlns="http://www.w3.org/2000/svg">
<path d="M33.6474 33.9911C38.1556 29.484 35.1508 14.4581 28.388 7.69637C25.3832 4.69055 16.743 -1.69613 7.35262 7.69637C-2.03988 17.0867 4.34681 25.727 7.35262 28.7317C14.1144 35.4946 29.1402 38.4993 33.6474 33.9911V33.9911Z" stroke="#222831" stroke-width="4" stroke-linecap="round" stroke-linejoin="round"/>
<path d="M41.7499 41.5625L34.3124 34.125" stroke="#222831" stroke-width="4"/>
<path d="M41.1393 38.6972C40.102 39.7345 40.102 41.4164 41.1393 42.4537C42.1766 43.491 43.8585 43.491 44.8958 42.4537C45.9331 41.4164 45.9331 39.7345 44.8958 38.6972C43.8585 37.6599 42.1766 37.6599 41.1393 38.6972Z" fill="#222831"/>
<path d="M38.8847 40.9518C37.8473 41.9892 37.8473 43.671 38.8847 44.7083C39.922 45.7457 41.6038 45.7457 42.6412 44.7083C43.6785 43.671 43.6785 41.9892 42.6412 40.9518C41.6038 39.9145 39.922 39.9145 38.8847 40.9518Z" fill="#222831"/>
<path d="M16.25 19.25C17.4236 19.25 18.375 18.2986 18.375 17.125C18.375 15.9514 17.4236 15 16.25 15C15.0764 15 14.125 15.9514 14.125 17.125C14.125 18.2986 15.0764 19.25 16.25 19.25Z" fill="#222831"/>
<path d="M10.9374 22.4375C12.111 22.4375 13.0624 21.4861 13.0624 20.3125C13.0624 19.1389 12.111 18.1875 10.9374 18.1875C9.76383 18.1875 8.81244 19.1389 8.81244 20.3125C8.81244 21.4861 9.76383 22.4375 10.9374 22.4375Z" fill="#222831"/>
<path d="M16.25 25.625C17.4236 25.625 18.375 24.6736 18.375 23.5C18.375 22.3264 17.4236 21.375 16.25 21.375C15.0764 21.375 14.125 22.3264 14.125 23.5C14.125 24.6736 15.0764 25.625 16.25 25.625Z" fill="#222831"/>
</svg>
