<svg width="51" height="51" viewBox="0 0 51 51" fill="none" xmlns="http://www.w3.org/2000/svg">
<g clip-path="url(#clip0_74_6823)">
<path d="M33.469 15.1406C33.469 15.6134 33.3288 16.0757 33.0661 16.4688C32.8034 16.8619 32.43 17.1683 31.9932 17.3493C31.5564 17.5302 31.0757 17.5776 30.612 17.4853C30.1482 17.3931 29.7222 17.1654 29.3879 16.8311C29.0536 16.4967 28.8259 16.0708 28.7337 15.607C28.6414 15.1433 28.6888 14.6626 28.8697 14.2258C29.0506 13.7889 29.357 13.4156 29.7502 13.1529C30.1433 12.8902 30.6055 12.75 31.0783 12.75C31.7124 12.75 32.3204 13.0019 32.7688 13.4502C33.2171 13.8985 33.469 14.5066 33.469 15.1406ZM40.9811 31.774C36.9115 36.9439 30.3789 39.7647 21.5537 40.1661L17.4068 50.0242C17.2852 50.3133 17.081 50.5601 16.8198 50.7337C16.5585 50.9072 16.2519 50.9999 15.9383 51C15.9064 51 15.8744 50.999 15.8423 50.9972C15.5129 50.9775 15.1977 50.8559 14.9403 50.6494C14.6829 50.4428 14.496 50.1615 14.4053 49.8442L11.4609 39.5386L1.15529 36.5873C0.838102 36.4965 0.556919 36.3095 0.35054 36.0521C0.14416 35.7947 0.0227569 35.4795 0.00308144 35.1502C-0.016594 34.8209 0.0664284 34.4935 0.240693 34.2134C0.414957 33.9332 0.671873 33.714 0.975991 33.5861L10.8295 29.4419C11.1503 22.4322 12.9988 16.871 16.3372 12.8398L16.3423 12.8339C17.2008 11.7958 18.1673 10.8521 19.2254 10.0185C27.4167 3.57219 39.0228 5.44723 42.3846 6.17578C42.9823 6.30604 43.5299 6.6052 43.9625 7.03769C44.395 7.47017 44.6943 8.01779 44.8246 8.61541C45.553 11.9776 47.4284 23.5839 40.9811 31.7742V31.774ZM32.7773 34.3646C30.8825 33.6586 29.2144 32.4522 27.9506 30.8737C26.6868 29.2953 25.8744 27.4038 25.5998 25.4004C23.5959 25.1258 21.704 24.313 20.1253 23.0486C18.5466 21.7842 17.3403 20.1155 16.6346 18.22C14.9882 21.517 14.0983 25.6393 13.9804 30.5542C13.973 30.8614 13.877 31.1598 13.7039 31.4137C13.5308 31.6676 13.288 31.866 13.0048 31.9852L6.38478 34.7693L13.1889 36.7178C13.4491 36.7923 13.6861 36.9319 13.8774 37.1234C14.0688 37.3148 14.2082 37.5519 14.2826 37.8121L16.2254 44.6121L19.0111 37.9904C19.1302 37.7072 19.3287 37.4645 19.5826 37.2915C19.8366 37.1185 20.1351 37.0225 20.4423 37.0153C25.3574 36.8985 29.4798 36.0098 32.7771 34.3646H32.7773ZM41.7094 9.29017C38.6921 8.63693 28.2935 6.93799 21.1967 12.5235C20.4494 13.1125 19.7572 13.7683 19.1288 14.4828C19.1673 16.5708 20.0231 18.5604 21.5124 20.0243C23.0016 21.4883 25.0056 22.3098 27.094 22.3125C27.5167 22.3125 27.922 22.4804 28.2209 22.7793C28.5198 23.0782 28.6877 23.4836 28.6877 23.9063C28.6904 25.9942 29.5116 27.9978 30.975 29.487C32.4385 30.9763 34.4275 31.8323 36.515 31.8714C37.2304 31.2428 37.8869 30.5502 38.4765 29.8023C44.0622 22.7066 42.3633 12.3081 41.7094 9.29017Z" fill="#222831"/>
</g>
<defs>
<clipPath id="clip0_74_6823">
<rect width="51" height="51" fill="white"/>
</clipPath>
</defs>
</svg>
