<svg width="36" height="41" viewBox="0 0 36 41" fill="none" xmlns="http://www.w3.org/2000/svg">
<path d="M9.12501 17.9551C9.63055 17.9551 10.1154 17.7543 10.4728 17.3968C10.8303 17.0393 11.0311 16.5545 11.0311 16.049C11.0311 15.5434 10.8303 15.0586 10.4728 14.7011C10.1154 14.3437 9.63055 14.1429 9.12501 14.1429C8.61948 14.1429 8.13465 14.3437 7.77718 14.7011C7.41971 15.0586 7.21889 15.5434 7.21889 16.049C7.21889 16.5545 7.41971 17.0393 7.77718 17.3968C8.13465 17.7543 8.61948 17.9551 9.12501 17.9551ZM18.6187 21.1503C18.6187 21.6558 18.4178 22.1406 18.0604 22.4981C17.7029 22.8556 17.2181 23.0564 16.7125 23.0564C16.207 23.0564 15.7222 22.8556 15.3647 22.4981C15.0072 22.1406 14.8064 21.6558 14.8064 21.1503C14.8064 20.6447 15.0072 20.1599 15.3647 19.8024C15.7222 19.445 16.207 19.2441 16.7125 19.2441C17.2181 19.2441 17.7029 19.445 18.0604 19.8024C18.4178 20.1599 18.6187 20.6447 18.6187 21.1503ZM9.13521 29.4454C9.3867 29.4454 9.63573 29.3959 9.86807 29.2996C10.1004 29.2034 10.3115 29.0623 10.4894 28.8845C10.6672 28.7067 10.8082 28.4956 10.9045 28.2632C11.0007 28.0309 11.0503 27.7818 11.0503 27.5304C11.0503 27.2789 11.0007 27.0298 10.9045 26.7975C10.8082 26.5651 10.6672 26.354 10.4894 26.1762C10.3115 25.9984 10.1004 25.8573 9.86807 25.7611C9.63573 25.6648 9.3867 25.6153 9.13521 25.6153C8.62731 25.6153 8.14021 25.8171 7.78107 26.1762C7.42193 26.5353 7.22016 27.0224 7.22016 27.5304C7.22016 28.0383 7.42193 28.5254 7.78107 28.8845C8.14021 29.2436 8.62731 29.4454 9.13521 29.4454ZM0.200012 5.0878C0.200012 2.29555 2.48226 -0.068299 5.37651 0.110201C16.7164 0.808901 26.6614 4.6237 34.4516 12.0621C36.6625 14.1709 36.2264 17.616 33.934 19.3755C30.3666 22.1294 26.7752 24.852 23.1602 27.5431V31.9801C23.1602 33.8085 21.745 35.8051 19.3352 35.8051C18.8737 35.8051 18.4478 35.7286 18.0653 35.6011V35.8128C18.0653 37.6309 16.6475 39.6148 14.2327 39.6148C12.31 39.6148 11.0426 38.35 10.5964 36.9373C9.19896 37.9828 7.67151 39.1201 6.30726 40.135C3.78276 42.0144 0.200012 40.2115 0.200012 37.075V5.0878ZM18.0628 31.9801C18.0628 32.6406 18.56 33.2551 19.3352 33.2551C20.113 33.2551 20.6102 32.6355 20.6102 31.9801V26.8954C20.6104 26.6944 20.6581 26.4964 20.7494 26.3173C20.8406 26.1383 20.973 25.9834 21.1355 25.8652C23.1245 24.4219 26.5109 21.849 29.5097 19.5565C22.6426 13.0209 13.0163 9.1423 2.75001 9.0607V37.0725C2.75072 37.3084 2.81686 37.5395 2.94109 37.74C3.06532 37.9406 3.24276 38.1028 3.45367 38.2085C3.66457 38.3142 3.90068 38.3593 4.13571 38.3388C4.37074 38.3184 4.59547 38.2331 4.78491 38.0925C6.78921 36.5982 9.15306 34.8387 10.9279 33.5076C11.1173 33.3655 11.3425 33.279 11.5784 33.2577C11.8142 33.2364 12.0513 33.2813 12.2631 33.3872C12.4748 33.493 12.653 33.6558 12.7774 33.8572C12.9019 34.0587 12.9679 34.2908 12.9679 34.5276V35.8128C12.9679 36.4426 13.4524 37.0674 14.2327 37.0674C14.3997 37.0714 14.5659 37.042 14.7214 36.9807C14.8769 36.9194 15.0185 36.8276 15.1379 36.7106C15.2572 36.5936 15.3519 36.4539 15.4163 36.2997C15.4807 36.1454 15.5135 35.9799 15.5128 35.8128V31.9801C15.5128 31.642 15.6471 31.3177 15.8862 31.0785C16.1253 30.8394 16.4496 30.7051 16.7878 30.7051C17.1259 30.7051 17.4502 30.8394 17.6893 31.0785C17.9284 31.3177 18.0628 31.642 18.0628 31.9801ZM32.3785 17.3559C33.5642 16.4455 33.6535 14.8237 32.6896 13.9032C25.4042 6.9493 16.0636 3.32065 5.22096 2.65255C3.89751 2.57095 2.75001 3.65725 2.75001 5.0878V6.5107C13.7839 6.59485 24.1751 10.8126 31.5574 17.9857L32.3785 17.3559Z" fill="#222831"/>
</svg>
