<svg width="43" height="41" viewBox="0 0 43 41" fill="none" xmlns="http://www.w3.org/2000/svg">
<path d="M40.8125 34.25V19.375H2.5625V34.25C2.5625 35.3772 3.01027 36.4582 3.8073 37.2552C4.60433 38.0522 5.68533 38.5 6.8125 38.5H36.5625C37.6897 38.5 38.7707 38.0522 39.5677 37.2552C40.3647 36.4582 40.8125 35.3772 40.8125 34.25Z" stroke="#222831" stroke-width="4" stroke-linecap="round" stroke-linejoin="round"/>
<path d="M2.5625 27.875H40.8125" stroke="#222831" stroke-width="4" stroke-linecap="round" stroke-linejoin="round"/>
<path d="M2.5625 23.625V32.125" stroke="#222831" stroke-width="4" stroke-linecap="round" stroke-linejoin="round"/>
<path d="M40.8125 23.625V32.125" stroke="#222831" stroke-width="4" stroke-linecap="round" stroke-linejoin="round"/>
<path d="M2.63368 19.375H40.8125C40.8125 17.233 28.2676 8.13161 21.7226 3.84868C15.1776 -0.433198 9.72375 5.45518 5.36006 10.8081C1.86975 15.0931 2.63368 17.2351 2.63368 19.375Z" stroke="#222831" stroke-width="4" stroke-linecap="round" stroke-linejoin="round"/>
</svg>
