<svg width="51" height="51" viewBox="0 0 51 51" fill="none" xmlns="http://www.w3.org/2000/svg">
<g clip-path="url(#clip0_208_5902)">
<path d="M33.4687 15.1406C33.4687 15.6134 33.3285 16.0757 33.0658 16.4688C32.8031 16.8619 32.4298 17.1683 31.9929 17.3493C31.5561 17.5302 31.0754 17.5776 30.6117 17.4853C30.148 17.3931 29.722 17.1654 29.3877 16.8311C29.0533 16.4967 28.8257 16.0708 28.7334 15.607C28.6412 15.1433 28.6885 14.6626 28.8694 14.2258C29.0504 13.7889 29.3568 13.4156 29.7499 13.1529C30.1431 12.8902 30.6053 12.75 31.0781 12.75C31.7121 12.75 32.3202 13.0019 32.7685 13.4502C33.2169 13.8985 33.4687 14.5066 33.4687 15.1406ZM40.9809 31.774C36.9112 36.9439 30.3786 39.7647 21.5534 40.1661L17.4065 50.0242C17.2849 50.3133 17.0807 50.5601 16.8195 50.7337C16.5583 50.9072 16.2517 50.9999 15.9381 51C15.9062 51 15.8741 50.999 15.842 50.9972C15.5126 50.9775 15.1975 50.8559 14.9401 50.6494C14.6827 50.4428 14.4957 50.1615 14.4051 49.8442L11.4606 39.5386L1.15504 36.5873C0.837857 36.4965 0.556675 36.3095 0.350296 36.0521C0.143916 35.7947 0.0225127 35.4795 0.0028373 35.1502C-0.0168381 34.8209 0.0661843 34.4935 0.240449 34.2134C0.414713 33.9332 0.671629 33.714 0.975747 33.5861L10.8293 29.4419C11.15 22.4322 12.9986 16.871 16.3369 12.8398L16.3421 12.8339C17.2006 11.7958 18.167 10.8521 19.2252 10.0185C27.4165 3.57219 39.0225 5.44723 42.3844 6.17578C42.982 6.30604 43.5297 6.6052 43.9622 7.03769C44.3948 7.47017 44.694 8.01779 44.8244 8.61541C45.5527 11.9776 47.4282 23.5839 40.9809 31.7742V31.774ZM32.777 34.3646C30.8822 33.6586 29.2142 32.4522 27.9504 30.8737C26.6865 29.2953 25.8741 27.4038 25.5996 25.4004C23.5957 25.1258 21.7038 24.313 20.1251 23.0486C18.5464 21.7842 17.34 20.1155 16.6343 18.22C14.988 21.517 14.0981 25.6393 13.9801 30.5542C13.9727 30.8614 13.8767 31.1598 13.7036 31.4137C13.5306 31.6676 13.2878 31.866 13.0046 31.9852L6.38454 34.7693L13.1887 36.7178C13.4489 36.7923 13.6858 36.9319 13.8772 37.1234C14.0686 37.3148 14.208 37.5519 14.2824 37.8121L16.2251 44.6121L19.0108 37.9904C19.13 37.7072 19.3285 37.4645 19.5824 37.2915C19.8363 37.1185 20.1348 37.0225 20.442 37.0153C25.3571 36.8985 29.4796 36.0098 32.7768 34.3646H32.777ZM41.7092 9.29017C38.6918 8.63693 28.2932 6.93799 21.1964 12.5235C20.4491 13.1125 19.757 13.7683 19.1286 14.4828C19.167 16.5708 20.0228 18.5604 21.5121 20.0243C23.0014 21.4883 25.0054 22.3098 27.0937 22.3125C27.5164 22.3125 27.9218 22.4804 28.2207 22.7793C28.5196 23.0782 28.6875 23.4836 28.6875 23.9063C28.6901 25.9942 29.5113 27.9978 30.9748 29.487C32.4382 30.9763 34.4272 31.8323 36.5148 31.8714C37.2301 31.2428 37.8867 30.5502 38.4763 29.8023C44.062 22.7066 42.363 12.3081 41.7092 9.29017Z" fill="white"/>
</g>
<defs>
<clipPath id="clip0_208_5902">
<rect width="51" height="51" fill="white"/>
</clipPath>
</defs>
</svg>
