<svg width="36" height="41" viewBox="0 0 36 41" fill="none" xmlns="http://www.w3.org/2000/svg">
<path d="M9.1252 17.9551C9.63073 17.9551 10.1156 17.7543 10.473 17.3968C10.8305 17.0393 11.0313 16.5545 11.0313 16.049C11.0313 15.5434 10.8305 15.0586 10.473 14.7011C10.1156 14.3437 9.63073 14.1429 9.1252 14.1429C8.61966 14.1429 8.13483 14.3437 7.77736 14.7011C7.41989 15.0586 7.21907 15.5434 7.21907 16.049C7.21907 16.5545 7.41989 17.0393 7.77736 17.3968C8.13483 17.7543 8.61966 17.9551 9.1252 17.9551ZM18.6188 21.1503C18.6188 21.6558 18.418 22.1406 18.0606 22.4981C17.7031 22.8556 17.2183 23.0564 16.7127 23.0564C16.2072 23.0564 15.7224 22.8556 15.3649 22.4981C15.0074 22.1406 14.8066 21.6558 14.8066 21.1503C14.8066 20.6447 15.0074 20.1599 15.3649 19.8024C15.7224 19.445 16.2072 19.2441 16.7127 19.2441C17.2183 19.2441 17.7031 19.445 18.0606 19.8024C18.418 20.1599 18.6188 20.6447 18.6188 21.1503ZM9.1354 29.4454C9.38688 29.4454 9.63591 29.3959 9.86825 29.2996C10.1006 29.2034 10.3117 29.0623 10.4895 28.8845C10.6674 28.7067 10.8084 28.4956 10.9047 28.2632C11.0009 28.0309 11.0504 27.7818 11.0504 27.5304C11.0504 27.2789 11.0009 27.0298 10.9047 26.7975C10.8084 26.5651 10.6674 26.354 10.4895 26.1762C10.3117 25.9984 10.1006 25.8573 9.86825 25.7611C9.63591 25.6648 9.38688 25.6153 9.1354 25.6153C8.62749 25.6153 8.14039 25.8171 7.78125 26.1762C7.42211 26.5353 7.22035 27.0224 7.22035 27.5304C7.22035 28.0383 7.42211 28.5254 7.78125 28.8845C8.14039 29.2436 8.62749 29.4454 9.1354 29.4454ZM0.200195 5.0878C0.200195 2.29555 2.48245 -0.068299 5.3767 0.110201C16.7165 0.808901 26.6615 4.6237 34.4518 12.0621C36.6626 14.1709 36.2266 17.616 33.9341 19.3755C30.3668 22.1294 26.7754 24.852 23.1604 27.5431V31.9801C23.1604 33.8085 21.7451 35.8051 19.3354 35.8051C18.8738 35.8051 18.448 35.7286 18.0655 35.6011V35.8128C18.0655 37.6309 16.6477 39.6148 14.2328 39.6148C12.3101 39.6148 11.0428 38.35 10.5965 36.9373C9.19915 37.9828 7.6717 39.1201 6.30745 40.135C3.78295 42.0144 0.200195 40.2115 0.200195 37.075V5.0878ZM18.0629 31.9801C18.0629 32.6406 18.5602 33.2551 19.3354 33.2551C20.1131 33.2551 20.6104 32.6355 20.6104 31.9801V26.8954C20.6106 26.6944 20.6582 26.4964 20.7495 26.3173C20.8408 26.1383 20.9731 25.9834 21.1357 25.8652C23.1247 24.4219 26.5111 21.849 29.5099 19.5565C22.6427 13.0209 13.0165 9.1423 2.7502 9.0607V37.0725C2.7509 37.3084 2.81704 37.5395 2.94127 37.74C3.0655 37.9406 3.24294 38.1028 3.45385 38.2085C3.66476 38.3142 3.90086 38.3593 4.13589 38.3388C4.37092 38.3184 4.59566 38.2331 4.7851 38.0925C6.7894 36.5982 9.15325 34.8387 10.928 33.5076C11.1175 33.3655 11.3427 33.279 11.5785 33.2577C11.8144 33.2364 12.0515 33.2813 12.2632 33.3872C12.475 33.493 12.6531 33.6558 12.7776 33.8572C12.9021 34.0587 12.968 34.2908 12.968 34.5276V35.8128C12.968 36.4426 13.4525 37.0674 14.2328 37.0674C14.3999 37.0714 14.5661 37.042 14.7216 36.9807C14.8771 36.9194 15.0187 36.8276 15.1381 36.7106C15.2574 36.5936 15.3521 36.4539 15.4165 36.2997C15.4809 36.1454 15.5137 35.9799 15.5129 35.8128V31.9801C15.5129 31.642 15.6473 31.3177 15.8864 31.0785C16.1255 30.8394 16.4498 30.7051 16.7879 30.7051C17.1261 30.7051 17.4504 30.8394 17.6895 31.0785C17.9286 31.3177 18.0629 31.642 18.0629 31.9801ZM32.3786 17.3559C33.5644 16.4455 33.6536 14.8237 32.6897 13.9032C25.4044 6.9493 16.0637 3.32065 5.22115 2.65255C3.8977 2.57095 2.7502 3.65725 2.7502 5.0878V6.5107C13.784 6.59485 24.1753 10.8126 31.5576 17.9857L32.3786 17.3559Z" fill="white"/>
</svg>
